<svg aria-hidden="true" style="position: absolute; width: 0; height: 0; overflow: hidden;" version="1.1" xmlns="http://www.w3.org/2000/svg" xmlns:xlink="http://www.w3.org/1999/xlink">
   <defs>
      <symbol id="icon-hide" viewBox="0 0 36 32">
         <path stroke-linejoin="round" stroke-linecap="round" stroke-miterlimit="4" stroke-width="3" d="M8.7 25.55c-3.717-2.433-6.117-6.1-6.117-9.317 0-5.467 6.9-12.167 15.417-12.167 3.483 0 6.717 1.117 9.317 2.85"></path>
         <path stroke-linejoin="round" stroke-linecap="round" stroke-miterlimit="4" stroke-width="3" d="M31.083 10.35c1.485 1.883 2.35 3.967 2.35 5.883 0 5.467-6.917 12.167-15.433 12.167-1.517 0-2.998-0.217-4.383-0.6"></path>
         <path stroke-linejoin="round" stroke-linecap="round" stroke-miterlimit="4" stroke-width="3" d="M14.276 19.945c-0.992-0.982-1.547-2.32-1.542-3.715-0.007-2.908 2.347-5.272 5.257-5.277 1.4-0.003 2.743 0.552 3.733 1.542"></path>
         <path stroke-linejoin="round" stroke-linecap="round" stroke-miterlimit="4" stroke-width="3" d="M23.182 17.165c-0.39 2.153-2.075 3.842-4.228 4.237"></path>
         <path stroke-linejoin="round" stroke-linecap="round" stroke-miterlimit="4" stroke-width="3" d="M31.153 3.083l-26.29 26.29"></path>
      </symbol>
   </defs>
</svg>
